<svg width="122" height="166" viewBox="0 0 122 166" fill="none" xmlns="http://www.w3.org/2000/svg">
<path d="M58.3473 0C58.3473 0 54.8402 36.9585 17.2811 71.6433C-20.278 106.339 5.7624 175.215 72.3971 163.997C72.3971 163.997 81.5241 162.613 85.5782 159.406C85.5782 159.406 80.516 160.844 67.6674 153.819C67.6674 153.819 41.3803 161.444 23.0083 142.74C14.2352 133.816 2.51271 117.75 11.511 94.0265C11.511 94.0265 14.3746 80.0089 37.8946 56.5961C37.8946 56.5961 52.0517 42.4819 58.3473 0Z" fill="white"/>
<path d="M58.3483 0C58.3483 0 60.5683 23.6166 67.9472 33.9341C75.326 44.2516 73.3097 45.2168 92.6577 60.2962C112.006 75.3756 123.943 99.1853 121.551 116.474C119.159 133.763 114.236 154.409 85.311 160.136C85.311 160.136 76.9884 162.442 48.9746 143.844C48.9746 143.844 38.035 140.541 40.8342 135.586C40.8342 135.586 39.9119 132.551 63.9146 140.841C63.9146 140.841 77.3101 144.316 81.4286 143.651C85.547 142.986 90.1587 138.139 90.5663 137.903C90.9739 137.667 86.7804 136.841 80.2274 139.565C73.6851 142.289 59.4851 135.983 56.6108 132.315C56.6108 132.315 55.002 128.368 63.6786 131.264C72.3659 134.17 89.6976 126.084 89.6976 126.084C89.6976 126.084 99.6826 122.823 107.673 131.403C107.673 131.403 122.602 115.08 105.067 85.7575C105.067 85.7575 94.7276 69.9595 82.7048 60.8539C70.6821 51.7484 54.4014 21.2356 58.3483 0Z" fill="white"/>
<path d="M63.2846 70.2361C63.2846 70.2361 66.8024 74.8371 61.633 87.9968C56.4635 101.156 42.3279 113.426 48.7736 134.393C48.7736 134.393 56.4956 138.329 59.5737 137.868C59.5737 137.868 52.7848 135.434 55.702 129.61C55.702 129.61 56.7423 127.122 63.6278 129.492C70.5026 131.862 81.5065 127.111 83.866 126.049C86.2148 124.987 92.7999 122.971 95.2024 124.011C95.2024 124.011 100.822 93.6489 63.2846 70.2361Z" fill="white"/>
</svg>
